# This file uses centimeters as units for non-parametric coordinates.

mtllib Luparm.mtl
g default
v 1.653766 0.213423 0.184955
v 1.306815 0.345572 0.221760
v 1.306815 0.150297 0.182917
v 1.586149 0.045322 0.148915
v 1.306815 -0.015248 0.072303
v 1.528826 -0.097187 0.046279
v 1.306815 -0.125862 -0.093242
v 1.490524 -0.192409 -0.107326
v 1.306815 -0.164704 -0.288516
v 1.477075 -0.225847 -0.288516
v 1.306815 -0.125862 -0.483790
v 1.490524 -0.192409 -0.469705
v 1.306815 -0.015248 -0.649335
v 1.528826 -0.097187 -0.623311
v 1.306815 0.150297 -0.759949
v 1.586149 0.045322 -0.725946
v 1.306815 0.345572 -0.798791
v 1.653766 0.213423 -0.761987
v 1.306814 0.540847 -0.759949
v 1.721383 0.381524 -0.725946
v 1.306815 0.706392 -0.649335
v 1.778707 0.524033 -0.623311
v 1.306815 0.817006 -0.483790
v 1.817008 0.619255 -0.469705
v 1.306814 0.855849 -0.288516
v 1.830458 0.652692 -0.288516
v 1.306815 0.817006 -0.093242
v 1.817008 0.619255 -0.107326
v 1.306815 0.706392 0.072303
v 1.778707 0.524033 0.046279
v 1.306814 0.540847 0.182917
v 1.721383 0.381524 0.148915
v 0.996818 0.189817 -0.444271
v 0.996819 0.142069 -0.372810
v 0.996819 0.125302 -0.288516
v 0.996819 0.142069 -0.204222
v 0.996818 0.189817 -0.132761
v 0.996819 0.261278 -0.085012
v 0.996819 0.345572 -0.068245
v 0.996819 0.429866 -0.085012
v 0.996819 0.501327 -0.132761
v 0.996819 0.549076 -0.204222
v 0.996818 0.565843 -0.288516
v 0.996819 0.549076 -0.372810
v 0.996819 0.501327 -0.444271
v 0.996819 0.429866 -0.492019
v 0.996819 0.345572 -0.508787
v 0.996819 0.261278 -0.492019
v 2.245652 -0.035882 -0.412941
v 2.266481 -0.003926 -0.355854
v 2.273794 0.007296 -0.288516
v 2.266481 -0.003926 -0.221178
v 2.245652 -0.035882 -0.164091
v 2.214481 -0.083707 -0.125947
v 2.177710 -0.140120 -0.112552
v 2.140941 -0.196534 -0.125947
v 2.109768 -0.244358 -0.164091
v 2.088939 -0.276313 -0.221178
v 2.081625 -0.287535 -0.288516
v 2.088939 -0.276313 -0.355854
v 2.109768 -0.244358 -0.412941
v 2.140941 -0.196534 -0.451085
v 2.177710 -0.140120 -0.464479
v 2.214481 -0.083707 -0.451085
v 1.129849 0.345572 0.125957
v 1.129849 0.186960 0.094406
v 1.129849 0.504185 0.094406
v 1.129849 0.638649 0.004560
v 1.129849 0.728495 -0.129904
v 1.129849 0.760046 -0.288516
v 1.129849 0.728495 -0.447127
v 1.129849 0.638649 -0.581593
v 1.129849 0.504185 -0.671439
v 1.129849 0.345572 -0.702988
v 1.129849 0.186960 -0.671439
v 1.129848 0.052495 -0.581593
v 1.129849 -0.037351 -0.447127
v 1.129849 -0.068901 -0.288516
v 1.129849 -0.037351 -0.129904
v 1.129848 0.052495 0.004560
v 2.055427 0.125790 0.088089
v 1.970246 -0.004896 0.119119
v 2.088680 -0.082091 0.042586
v 2.157869 0.024060 0.017383
v 1.885066 -0.135583 0.088089
v 2.019492 -0.188241 0.017383
v 1.812853 -0.246374 -0.000274
v 1.960838 -0.278231 -0.054391
v 1.764602 -0.320402 -0.132520
v 1.921646 -0.338360 -0.161808
v 1.747659 -0.346397 -0.288516
v 1.907883 -0.359475 -0.288516
v 1.764602 -0.320402 -0.444511
v 1.921646 -0.338360 -0.415223
v 1.812853 -0.246374 -0.576757
v 1.960838 -0.278231 -0.522641
v 1.885066 -0.135583 -0.665122
v 2.019492 -0.188241 -0.594414
v 1.970246 -0.004896 -0.696151
v 2.088680 -0.082091 -0.619618
v 2.055427 0.125790 -0.665122
v 2.157869 0.024060 -0.594414
v 2.127640 0.236580 -0.576757
v 2.216522 0.114050 -0.522641
v 2.175889 0.310608 -0.444511
v 2.255715 0.174179 -0.415223
v 2.192834 0.336604 -0.288516
v 2.269477 0.195294 -0.288516
v 2.175889 0.310608 -0.132520
v 2.255715 0.174179 -0.161808
v 2.127640 0.236580 -0.000274
v 2.216522 0.114050 -0.054391
vn 0.135373 -0.020968 0.990573
vn -0.081472 0.030658 0.996204
vn -0.191072 -0.340555 0.920605
vn -0.035127 -0.371012 0.927963
vn -0.294774 -0.649037 0.701326
vn -0.202477 -0.667082 0.716941
vn -0.372517 -0.847960 0.377086
vn -0.329273 -0.860292 0.389201
vn -0.402114 -0.915590 -0.000000
vn -0.376946 -0.926235 -0.000000
vn -0.372517 -0.847960 -0.377087
vn -0.329272 -0.860292 -0.389201
vn -0.294773 -0.649038 -0.701326
vn -0.202477 -0.667083 -0.716941
vn -0.191070 -0.340553 -0.920606
vn -0.035127 -0.371012 -0.927963
vn -0.081471 0.030658 -0.996204
vn 0.135372 -0.020968 -0.990573
vn 0.018479 0.402085 -0.915416
vn 0.285001 0.324731 -0.901845
vn 0.097159 0.712508 -0.694904
vn 0.399968 0.612707 -0.681627
vn 0.146953 0.915965 -0.373381
vn 0.472014 0.802119 -0.365799
vn 0.163932 0.986472 0.000000
vn 0.496529 0.868020 0.000000
vn 0.146953 0.915965 0.373380
vn 0.472014 0.802119 0.365799
vn 0.097158 0.712508 0.694905
vn 0.399967 0.612707 0.681628
vn 0.018477 0.402088 0.915415
vn 0.285001 0.324731 0.901845
vn -1.000000 0.000000 -0.000000
vn -1.000000 0.000000 -0.000000
vn -1.000000 0.000000 -0.000000
vn -1.000000 0.000000 -0.000000
vn -1.000000 0.000000 -0.000000
vn -1.000000 0.000000 -0.000000
vn -1.000000 0.000000 -0.000000
vn -1.000000 0.000000 -0.000000
vn -1.000000 0.000000 -0.000000
vn -1.000000 0.000000 -0.000000
vn -1.000000 0.000000 -0.000000
vn -1.000000 0.000000 -0.000000
vn -1.000000 0.000000 -0.000000
vn -1.000000 0.000000 -0.000000
vn -1.000000 0.000000 -0.000000
vn -1.000000 0.000000 -0.000000
vn 0.837755 -0.546046 -0.000000
vn 0.837755 -0.546046 -0.000000
vn 0.837755 -0.546046 -0.000000
vn 0.837755 -0.546046 -0.000000
vn 0.837755 -0.546046 -0.000000
vn 0.837755 -0.546046 -0.000000
vn 0.837755 -0.546046 -0.000000
vn 0.837755 -0.546046 -0.000000
vn 0.837755 -0.546046 -0.000000
vn 0.837755 -0.546046 -0.000000
vn 0.837755 -0.546046 -0.000000
vn 0.837755 -0.546046 -0.000000
vn 0.837755 -0.546046 -0.000000
vn 0.837755 -0.546046 -0.000000
vn 0.837755 -0.546046 -0.000000
vn 0.837755 -0.546046 -0.000000
vn -0.634393 -0.000001 0.773010
vn -0.634393 -0.295818 0.714169
vn -0.634394 0.295819 0.714167
vn -0.634394 0.546601 0.546600
vn -0.634394 0.714167 0.295821
vn -0.634395 0.773010 -0.000000
vn -0.634394 0.714167 -0.295820
vn -0.634394 0.546602 -0.546599
vn -0.634394 0.295816 -0.714169
vn -0.634393 -0.000001 -0.773010
vn -0.634392 -0.295815 -0.714171
vn -0.634394 -0.546601 -0.546600
vn -0.634394 -0.714169 -0.295816
vn -0.634394 -0.773010 0.000000
vn -0.634393 -0.714169 0.295816
vn -0.634394 -0.546600 0.546601
vn 0.409979 0.197855 0.890377
vn 0.215693 -0.119536 0.969117
vn 0.531464 -0.346406 0.773013
vn 0.692995 -0.098584 0.714170
vn 0.016119 -0.438220 0.898723
vn 0.369937 -0.594227 0.714171
vn -0.156853 -0.707705 0.688876
vn 0.233002 -0.804324 0.546601
vn -0.274119 -0.886500 0.372796
vn 0.141503 -0.944705 0.295818
vn -0.315574 -0.948901 -0.000000
vn 0.109372 -0.994001 -0.000000
vn -0.274119 -0.886500 -0.372797
vn 0.141503 -0.944705 -0.295819
vn -0.156854 -0.707707 -0.688874
vn 0.233000 -0.804325 -0.546601
vn 0.016118 -0.438221 -0.898723
vn 0.369938 -0.594228 -0.714170
vn 0.215692 -0.119536 -0.969117
vn 0.531466 -0.346407 -0.773011
vn 0.409979 0.197856 -0.890377
vn 0.692997 -0.098584 -0.714168
vn 0.570311 0.464569 -0.677437
vn 0.829935 0.111515 -0.546601
vn 0.675124 0.641090 -0.364980
vn 0.921434 0.251894 -0.295820
vn 0.711484 0.702702 -0.000000
vn 0.953564 0.301191 -0.000000
vn 0.675124 0.641091 0.364979
vn 0.921434 0.251893 0.295820
vn 0.570310 0.464568 0.677439
vn 0.829935 0.111514 0.546601
vn -0.825001 -0.522115 0.216263
vn -0.825001 -0.565131 -0.000000
vn -0.825001 -0.399608 0.399608
vn -0.824999 -0.216265 0.522117
vn -0.825000 -0.000000 0.565133
vn -0.825000 0.216267 0.522115
vn -0.825000 0.399609 0.399609
vn -0.825000 0.522113 0.216269
vn -0.825000 0.565132 -0.000000
vn -0.825000 0.522114 -0.216269
vn -0.825001 0.399608 -0.399607
vn -0.825001 0.216265 -0.522114
vn -0.825001 0.000000 -0.565132
vn -0.825001 -0.216263 -0.522116
vn -0.825002 -0.399608 -0.399607
vn -0.825001 -0.522115 -0.216263
vn 0.976246 -0.013081 0.216269
vn 0.999736 0.022959 -0.000000
vn 0.909353 -0.115706 0.399611
vn 0.809240 -0.269306 0.522116
vn 0.691146 -0.450486 0.565137
vn 0.573057 -0.631664 0.522117
vn 0.472946 -0.785262 0.399607
vn 0.406055 -0.887890 0.216266
vn 0.382566 -0.923928 -0.000000
vn 0.406055 -0.887890 -0.216266
vn 0.472945 -0.785262 -0.399607
vn 0.573057 -0.631663 -0.522118
vn 0.691146 -0.450486 -0.565137
vn 0.809239 -0.269306 -0.522117
vn 0.909353 -0.115705 -0.399612
vn 0.976246 -0.013080 -0.216270
s 1
g al:uparmL
usemtl initialShadingGroup
f 1//1 2//2 3//3 4//4
f 4//4 3//3 5//5 6//6
f 6//6 5//5 7//7 8//8
f 8//8 7//7 9//9 10//10
f 10//10 9//9 11//11 12//12
f 12//12 11//11 13//13 14//14
f 14//14 13//13 15//15 16//16
f 16//16 15//15 17//17 18//18
f 18//18 17//17 19//19 20//20
f 20//20 19//19 21//21 22//22
f 22//22 21//21 23//23 24//24
f 24//24 23//23 25//25 26//26
f 26//26 25//25 27//27 28//28
f 28//28 27//27 29//29 30//30
f 30//30 29//29 31//31 32//32
f 32//32 31//31 2//2 1//1
s off
f 33//33 34//34 35//35 36//36 37//37 38//38 39//39 40//40 41//41 42//42 43//43 44//44 45//45 46//46 47//47 48//48
f 49//49 50//50 51//51 52//52 53//53 54//54 55//55 56//56 57//57 58//58 59//59 60//60 61//61 62//62 63//63 64//64
s 1
f 3//3 2//2 65//65 66//66
f 2//2 31//31 67//67 65//65
f 31//31 29//29 68//68 67//67
f 29//29 27//27 69//69 68//68
f 27//27 25//25 70//70 69//69
f 25//25 23//23 71//71 70//70
f 23//23 21//21 72//72 71//71
f 21//21 19//19 73//73 72//72
f 19//19 17//17 74//74 73//73
f 17//17 15//15 75//75 74//74
f 15//15 13//13 76//76 75//75
f 13//13 11//11 77//77 76//76
f 11//11 9//9 78//78 77//77
f 9//9 7//7 79//79 78//78
f 7//7 5//5 80//80 79//79
f 5//5 3//3 66//66 80//80
f 81//81 82//82 83//83 84//84
f 82//82 85//85 86//86 83//83
f 85//85 87//87 88//88 86//86
f 87//87 89//89 90//90 88//88
f 89//89 91//91 92//92 90//90
f 91//91 93//93 94//94 92//92
f 93//93 95//95 96//96 94//94
f 95//95 97//97 98//98 96//96
f 97//97 99//99 100//100 98//98
f 99//99 101//101 102//102 100//100
f 101//101 103//103 104//104 102//102
f 103//103 105//105 106//106 104//104
f 105//105 107//107 108//108 106//106
f 107//107 109//109 110//110 108//108
f 109//109 111//111 112//112 110//110
f 111//111 81//81 84//84 112//112
f 78//78 79//79 36//113 35//114
f 79//79 80//80 37//115 36//113
f 80//80 66//66 38//116 37//115
f 66//66 65//65 39//117 38//116
f 65//65 67//67 40//118 39//117
f 67//67 68//68 41//119 40//118
f 68//68 69//69 42//120 41//119
f 69//69 70//70 43//121 42//120
f 70//70 71//71 44//122 43//121
f 71//71 72//72 45//123 44//122
f 72//72 73//73 46//124 45//123
f 73//73 74//74 47//125 46//124
f 74//74 75//75 48//126 47//125
f 75//75 76//76 33//127 48//126
f 76//76 77//77 34//128 33//127
f 77//77 78//78 35//114 34//128
f 108//108 110//110 52//129 51//130
f 110//110 112//112 53//131 52//129
f 112//112 84//84 54//132 53//131
f 84//84 83//83 55//133 54//132
f 83//83 86//86 56//134 55//133
f 86//86 88//88 57//135 56//134
f 88//88 90//90 58//136 57//135
f 90//90 92//92 59//137 58//136
f 92//92 94//94 60//138 59//137
f 94//94 96//96 61//139 60//138
f 96//96 98//98 62//140 61//139
f 98//98 100//100 63//141 62//140
f 100//100 102//102 64//142 63//141
f 102//102 104//104 49//143 64//142
f 104//104 106//106 50//144 49//143
f 106//106 108//108 51//130 50//144
f 24//24 26//26 107//107 105//105
f 22//22 24//24 105//105 103//103
f 20//20 22//22 103//103 101//101
f 18//18 20//20 101//101 99//99
f 16//16 18//18 99//99 97//97
f 14//14 16//16 97//97 95//95
f 12//12 14//14 95//95 93//93
f 10//10 12//12 93//93 91//91
f 8//8 10//10 91//91 89//89
f 6//6 8//8 89//89 87//87
f 4//4 6//6 87//87 85//85
f 1//1 4//4 85//85 82//82
f 32//32 1//1 82//82 81//81
f 30//30 32//32 81//81 111//111
f 28//28 30//30 111//111 109//109
f 26//26 28//28 109//109 107//107
